<?xml version="1.0" encoding="utf-8"?>
<!-- Generator: Adobe Illustrator 16.0.0, SVG Export Plug-In . SVG Version: 6.00 Build 0)  -->
<!DOCTYPE svg PUBLIC "-//W3C//DTD SVG 1.1//EN" "http://www.w3.org/Graphics/SVG/1.1/DTD/svg11.dtd">
<svg version="1.1" id="Layer_1" xmlns="http://www.w3.org/2000/svg" xmlns:xlink="http://www.w3.org/1999/xlink" x="0px" y="0px"
	 width="86.652px" height="93.238px" viewBox="0 0 86.652 93.238" enable-background="new 0 0 86.652 93.238" xml:space="preserve">
<path fill="#FFFFFF" d="M76.917,66.75c-1.198,0.69-2.546,0.603-3.804,0.603H10.096c-3.02,0-5.468-2.442-5.468-5.454
	c0-0.782,0.165-1.526,0.462-2.199l28.216-48.791h-4.667c-3.02,0-5.468-2.442-5.468-5.455C23.171,2.442,25.619,0,28.639,0h13.788
	c1.415,0,2.7,0.541,3.671,1.421c2.053,1.66,2.665,4.594,1.301,6.948c0,0-16.569,28.631-27.836,48.099l6.1-0.024
	c12.219,0,28.804,0,38.976,0l-10.157-17.55h-9.677c-3.02,0-5.468-2.442-5.468-5.454c0-3.013,2.448-5.455,5.468-5.455h12.837
	c1.654,0,3.134,0.736,4.137,1.894c0,0,0.427,0.542,0.636,0.902c0.015,0.026,0.03,0.051,0.044,0.077
	c0.227,0.39,0.48,0.83,0.761,1.314c4.544,7.852,15.699,27.127,15.699,27.127C80.428,61.908,79.532,65.244,76.917,66.75z
	 M4.378,78.309L2.329,88.594c-0.063,0.318,0.017,0.59,0.242,0.814c0.225,0.225,0.516,0.338,0.873,0.339
	c0.372,0.002,0.711-0.107,1.012-0.329c0.302-0.223,0.485-0.492,0.55-0.811l2.048-10.285l3.27,0.018
	c0.372,0.001,0.71-0.109,1.013-0.33s0.484-0.484,0.545-0.789c0.063-0.317-0.013-0.588-0.227-0.813
	c-0.213-0.225-0.506-0.338-0.879-0.339l-9.204-0.046c-0.382-0.002-0.719,0.107-1.013,0.329c-0.294,0.223-0.474,0.491-0.536,0.809
	c-0.064,0.318,0.009,0.586,0.215,0.804c0.207,0.217,0.5,0.326,0.881,0.328L4.378,78.309z M10.793,88.658
	c-0.064,0.324,0.013,0.594,0.23,0.807c0.221,0.215,0.501,0.322,0.842,0.324c0.371,0.002,0.705-0.104,0.996-0.314
	c0.294-0.211,0.472-0.479,0.536-0.804l1.089-5.472c0.118-0.432,0.386-0.797,0.802-1.092c0.417-0.295,0.893-0.441,1.432-0.439
	c0.175,0.002,0.333,0.016,0.475,0.043s0.28,0.08,0.416,0.154c0.21,0.136,0.455,0.205,0.732,0.206
	c0.373,0.002,0.706-0.099,1.001-0.304s0.476-0.473,0.542-0.803c0.069-0.352-0.031-0.632-0.298-0.839
	c-0.269-0.208-0.575-0.362-0.92-0.462c-0.346-0.1-0.822-0.179-1.43-0.234c-0.824-0.005-1.62,0.157-2.384,0.484
	c-0.223-0.278-0.534-0.418-0.939-0.42c-0.364-0.002-0.692,0.104-0.985,0.318c-0.294,0.216-0.471,0.481-0.534,0.799L10.793,88.658z
	 M21.451,77.826c-0.061,0.305,0.019,0.566,0.236,0.783c0.219,0.217,0.499,0.328,0.84,0.329c0.372,0.002,0.705-0.104,0.998-0.319
	c0.292-0.215,0.471-0.476,0.531-0.779l0.11-0.558c0.063-0.317-0.014-0.585-0.228-0.802c-0.215-0.219-0.501-0.326-0.857-0.328
	c-0.364-0.002-0.693,0.104-0.987,0.318c-0.291,0.215-0.47,0.481-0.532,0.799L21.451,77.826z M19.285,88.701
	c-0.064,0.324,0.013,0.594,0.231,0.807c0.22,0.214,0.5,0.322,0.841,0.324c0.372,0.002,0.705-0.104,0.997-0.314
	s0.472-0.479,0.536-0.805l1.603-8.046c0.063-0.317-0.014-0.585-0.229-0.802c-0.215-0.219-0.5-0.326-0.856-0.328
	c-0.364-0.002-0.693,0.104-0.987,0.318c-0.292,0.215-0.47,0.481-0.533,0.799L19.285,88.701z M22.844,92.106
	c-0.063,0.317,0.01,0.585,0.215,0.802c0.208,0.218,0.502,0.328,0.882,0.33c0.34,0.002,0.661-0.105,0.963-0.32
	c0.3-0.215,0.482-0.48,0.545-0.799l0.509-2.553c0.255,0.116,0.543,0.208,0.862,0.277c0.318,0.069,0.649,0.104,0.99,0.106
	c0.635,0.003,1.243-0.094,1.826-0.29c0.582-0.195,1.115-0.471,1.599-0.824c0.483-0.352,0.889-0.76,1.22-1.221
	c0.329-0.461,0.547-0.956,0.651-1.482l0.554-2.777c0.104-0.526,0.085-1.022-0.061-1.485c-0.146-0.465-0.39-0.874-0.731-1.231
	s-0.768-0.637-1.279-0.838c-0.513-0.202-1.077-0.305-1.695-0.309c-0.634-0.003-1.243,0.094-1.826,0.291
	c-0.583,0.196-1.116,0.47-1.604,0.822c-0.486,0.354-0.893,0.76-1.218,1.223c-0.328,0.461-0.544,0.955-0.648,1.482L22.844,92.106z
	 M27.201,83.323c0.088-0.445,0.35-0.823,0.784-1.132c0.437-0.309,0.922-0.462,1.461-0.459c0.263,0.001,0.501,0.044,0.719,0.129
	c0.218,0.086,0.396,0.203,0.538,0.35c0.142,0.145,0.246,0.314,0.315,0.508c0.068,0.193,0.08,0.401,0.036,0.624l-0.554,2.776
	c-0.088,0.447-0.351,0.823-0.784,1.133c-0.435,0.309-0.923,0.462-1.461,0.459c-0.262-0.001-0.501-0.045-0.718-0.131
	c-0.217-0.085-0.397-0.201-0.538-0.348c-0.142-0.145-0.247-0.314-0.315-0.508s-0.081-0.402-0.037-0.625L27.201,83.323z M34.2,86.139
	c-0.105,0.526-0.087,1.021,0.056,1.486c0.142,0.463,0.387,0.874,0.73,1.23c0.346,0.357,0.771,0.637,1.273,0.838
	c0.505,0.202,1.072,0.305,1.707,0.308c0.618,0.003,1.224-0.093,1.813-0.29c0.592-0.195,1.129-0.471,1.611-0.824
	c0.483-0.352,0.89-0.759,1.22-1.221c0.329-0.461,0.547-0.955,0.652-1.482l0.554-2.777c0.104-0.525,0.083-1.021-0.063-1.485
	c-0.145-0.464-0.389-0.874-0.73-1.231c-0.341-0.357-0.765-0.636-1.267-0.838c-0.505-0.201-1.073-0.305-1.708-0.309
	c-0.355-0.001-0.699,0.031-1.031,0.097c-0.33,0.066-0.653,0.155-0.971,0.269l0.509-2.554c0.063-0.317-0.012-0.585-0.226-0.802
	c-0.215-0.219-0.493-0.326-0.834-0.328c-0.38-0.002-0.716,0.104-1.011,0.318c-0.292,0.215-0.471,0.481-0.533,0.799L34.2,86.139z
	 M37.369,83.313c0.118-0.431,0.39-0.796,0.814-1.092c0.424-0.295,0.897-0.44,1.42-0.438c0.539,0.003,0.966,0.16,1.275,0.473
	c0.312,0.313,0.421,0.692,0.333,1.138l-0.554,2.776c-0.044,0.223-0.139,0.432-0.282,0.623c-0.146,0.192-0.319,0.361-0.52,0.504
	c-0.199,0.145-0.424,0.259-0.675,0.342c-0.251,0.084-0.507,0.125-0.769,0.123c-0.539-0.002-0.963-0.16-1.274-0.473
	c-0.312-0.313-0.423-0.691-0.334-1.139L37.369,83.313z M43.928,88.824c-0.064,0.324,0.013,0.594,0.231,0.808
	c0.221,0.214,0.5,0.322,0.841,0.323c0.373,0.002,0.706-0.104,0.996-0.314c0.294-0.211,0.472-0.479,0.536-0.803l1.09-5.473
	c0.118-0.432,0.385-0.797,0.801-1.092c0.417-0.295,0.894-0.441,1.434-0.438c0.174,0.001,0.332,0.015,0.473,0.042
	c0.143,0.028,0.281,0.08,0.416,0.154c0.212,0.136,0.455,0.205,0.734,0.207c0.373,0.002,0.705-0.1,1-0.304
	c0.295-0.206,0.477-0.474,0.542-0.804c0.07-0.352-0.031-0.631-0.3-0.838c-0.266-0.209-0.574-0.363-0.919-0.463
	c-0.345-0.099-0.82-0.178-1.429-0.234c-0.824-0.004-1.619,0.158-2.384,0.484c-0.222-0.277-0.535-0.418-0.939-0.42
	c-0.365-0.002-0.692,0.104-0.985,0.318c-0.294,0.216-0.471,0.482-0.534,0.799L43.928,88.824z M54.587,77.992
	c-0.062,0.305,0.018,0.566,0.235,0.783c0.22,0.218,0.497,0.328,0.839,0.33c0.375,0.001,0.705-0.105,1-0.32
	c0.293-0.215,0.472-0.475,0.531-0.779l0.111-0.557c0.063-0.318-0.015-0.585-0.23-0.803c-0.213-0.219-0.498-0.326-0.855-0.328
	c-0.363-0.002-0.693,0.104-0.986,0.318c-0.292,0.216-0.473,0.481-0.533,0.799L54.587,77.992z M52.42,88.867
	c-0.063,0.324,0.013,0.594,0.231,0.807c0.222,0.215,0.499,0.322,0.841,0.324c0.373,0.002,0.706-0.104,0.998-0.314
	s0.472-0.479,0.537-0.804l1.602-8.046c0.063-0.318-0.015-0.585-0.229-0.803c-0.215-0.219-0.499-0.326-0.857-0.328
	c-0.363-0.002-0.692,0.104-0.985,0.318c-0.291,0.216-0.472,0.481-0.534,0.799L52.42,88.867z M57.036,86.252
	c-0.105,0.527-0.087,1.023,0.055,1.487s0.386,0.874,0.731,1.23c0.346,0.357,0.772,0.637,1.285,0.839
	c0.511,0.201,1.077,0.304,1.694,0.307c0.015,0,0.181-0.005,0.49-0.018c0.314-0.012,0.703-0.088,1.167-0.232
	c0.465-0.143,0.966-0.376,1.502-0.696c0.536-0.323,1.03-0.794,1.478-1.414c0.113-0.168,0.179-0.306,0.201-0.415
	c0.061-0.304-0.01-0.567-0.215-0.792c-0.207-0.224-0.494-0.337-0.867-0.339c-0.277-0.002-0.535,0.063-0.772,0.194
	c-0.234,0.132-0.423,0.294-0.566,0.489c-0.223,0.316-0.514,0.561-0.872,0.73c-0.362,0.171-0.727,0.256-1.1,0.254
	c-0.262-0.002-0.5-0.045-0.716-0.131s-0.397-0.201-0.537-0.348c-0.144-0.146-0.246-0.314-0.317-0.509
	c-0.068-0.192-0.08-0.401-0.036-0.624l0.554-2.777c0.088-0.445,0.351-0.822,0.784-1.131c0.437-0.31,0.923-0.463,1.46-0.459
	c0.371,0.002,0.703,0.092,0.994,0.273c0.287,0.18,0.482,0.424,0.58,0.728c0.064,0.21,0.19,0.378,0.385,0.504
	c0.189,0.126,0.419,0.19,0.681,0.191c0.373,0.002,0.704-0.103,0.995-0.314c0.295-0.212,0.471-0.479,0.536-0.804
	c0.014-0.066,0.02-0.135,0.018-0.202c-0.004-0.067-0.014-0.13-0.035-0.184c-0.167-0.569-0.421-1.015-0.769-1.338
	s-0.717-0.565-1.101-0.726c-0.384-0.161-0.744-0.263-1.077-0.305c-0.333-0.043-0.554-0.063-0.666-0.064
	c-0.632-0.003-1.249,0.094-1.849,0.291c-0.598,0.196-1.144,0.465-1.637,0.802c-0.491,0.34-0.904,0.743-1.241,1.212
	c-0.336,0.469-0.556,0.973-0.664,1.513L57.036,86.252z M66.703,88.938c-0.063,0.325,0.015,0.594,0.232,0.808
	c0.221,0.214,0.508,0.322,0.865,0.324c0.356,0.002,0.683-0.104,0.974-0.314c0.292-0.212,0.471-0.479,0.533-0.805l0.72-3.607
	l0.028-0.02l3.448,4.379c0.202,0.266,0.518,0.398,0.945,0.4c0.356,0.002,0.682-0.111,0.979-0.34
	c0.295-0.229,0.471-0.481,0.525-0.758c0.05-0.258-0.004-0.498-0.168-0.721c-0.602-0.754-1.179-1.477-1.722-2.165
	c-0.548-0.688-1.109-1.407-1.69-2.153l3.744-2.244c0.183-0.114,0.32-0.247,0.418-0.399c0.098-0.151,0.164-0.308,0.197-0.471
	c0.066-0.337-0.012-0.608-0.231-0.817c-0.221-0.207-0.494-0.311-0.818-0.313c-0.31-0.002-0.604,0.081-0.883,0.249
	c-0.695,0.422-1.396,0.847-2.1,1.272c-0.704,0.425-1.406,0.843-2.106,1.252l0.947-4.753c0.063-0.317-0.015-0.583-0.229-0.796
	c-0.213-0.215-0.493-0.322-0.835-0.324c-0.38-0.002-0.714,0.102-1.008,0.314c-0.293,0.211-0.47,0.475-0.533,0.793L66.703,88.938z
	 M78.24,84.275c0.136,0.395,0.371,0.711,0.704,0.945c0.335,0.235,0.755,0.406,1.262,0.514c0.508,0.107,1.069,0.163,1.688,0.166
	c0.555,0.003,1,0.078,1.336,0.225c0.334,0.147,0.464,0.424,0.382,0.829c-0.079,0.399-0.325,0.669-0.738,0.813
	c-0.414,0.143-0.878,0.213-1.394,0.211c-0.388-0.002-0.761-0.09-1.119-0.266c-0.359-0.174-0.583-0.42-0.682-0.738
	c-0.054-0.195-0.178-0.359-0.366-0.494c-0.186-0.133-0.418-0.199-0.686-0.201c-0.38-0.002-0.718,0.109-1.013,0.33
	c-0.294,0.222-0.471,0.484-0.531,0.788c-0.034,0.163-0.028,0.302,0.015,0.415c0.179,0.57,0.461,1.019,0.843,1.345
	c0.384,0.326,0.779,0.567,1.186,0.722c0.404,0.154,0.782,0.248,1.134,0.283c0.349,0.036,0.591,0.055,0.727,0.055
	c0.617,0.004,1.221-0.063,1.807-0.199c0.586-0.135,1.115-0.337,1.58-0.605c0.467-0.268,0.863-0.604,1.188-1.008
	c0.328-0.404,0.547-0.883,0.657-1.438c0.108-0.54,0.082-1.012-0.075-1.415c-0.159-0.403-0.417-0.745-0.773-1.022
	c-0.357-0.281-0.797-0.49-1.319-0.631c-0.524-0.143-1.097-0.214-1.714-0.217c-0.522-0.003-0.922-0.068-1.194-0.194
	c-0.271-0.126-0.377-0.349-0.314-0.667c0.049-0.236,0.24-0.432,0.576-0.59c0.34-0.156,0.759-0.234,1.267-0.23
	c0.389,0.002,0.692,0.059,0.913,0.171s0.42,0.295,0.599,0.546l0.004-0.02c0.105,0.148,0.25,0.263,0.428,0.342
	c0.179,0.078,0.354,0.118,0.53,0.119c0.356,0.002,0.678-0.105,0.968-0.32c0.288-0.215,0.464-0.475,0.524-0.777
	c0.04-0.203,0.007-0.41-0.103-0.621c-0.193-0.42-0.481-0.74-0.855-0.963c-0.379-0.221-0.757-0.391-1.138-0.507
	c-0.452-0.124-0.927-0.194-1.423-0.21c-0.618-0.004-1.208,0.069-1.764,0.219c-0.56,0.15-1.056,0.357-1.487,0.627
	c-0.436,0.268-0.799,0.59-1.086,0.963c-0.291,0.375-0.477,0.787-0.566,1.24C78.098,83.39,78.105,83.879,78.24,84.275z"/>
</svg>
